<?xml version="1.0" standalone="no"?>
<!DOCTYPE svg PUBLIC "-//W3C//DTD SVG 20010904//EN"
 "http://www.w3.org/TR/2001/REC-SVG-20010904/DTD/svg10.dtd">
<svg version="1.0" xmlns="http://www.w3.org/2000/svg"
 width="806.000000pt" height="187.000000pt" viewBox="0 0 806.000000 187.000000"
 preserveAspectRatio="xMidYMid meet">

<g transform="translate(0.000000,187.000000) scale(0.100000,-0.100000)"
fill="#FFFFFF" stroke="none">
<path d="M854 1809 c-199 -33 -396 -146 -522 -299 -65 -80 -145 -239 -172
-345 -57 -218 -25 -474 81 -650 54 -89 157 -213 218 -262 358 -284 883 -245
1196 88 104 111 181 255 216 405 19 81 21 113 16 232 -6 162 -21 222 -87 357
-121 248 -346 416 -628 471 -80 15 -236 17 -318 3z m351 -183 c179 -50 345
-174 345 -258 0 -52 -40 -82 -172 -128 -178 -61 -246 -107 -339 -229 l-25 -34
-38 51 c-76 105 -167 163 -334 216 -46 14 -93 31 -105 37 -55 28 -72 91 -42
149 36 69 197 163 343 200 94 24 273 22 367 -4z m-703 -490 c125 -47 256 -114
297 -151 95 -86 120 -171 128 -421 6 -197 0 -234 -43 -275 -76 -72 -302 36
-440 209 -103 130 -150 285 -142 467 5 115 23 159 71 180 44 19 57 18 129 -9z
m1161 3 c41 -19 61 -66 65 -159 10 -208 -53 -378 -196 -531 -94 -100 -245
-189 -322 -189 -36 0 -77 28 -94 64 -24 51 -22 319 3 444 34 162 93 230 269
308 170 75 223 87 275 63z"/>
<path d="M3830 1045 l0 -505 95 0 95 0 0 505 0 505 -95 0 -95 0 0 -505z"/>
<path d="M4150 1046 l0 -506 95 0 95 0 0 500 0 500 -34 0 c-18 0 -61 3 -95 6
l-61 7 0 -507z"/>
<path d="M2478 1281 c-144 -47 -223 -141 -250 -298 -30 -181 48 -351 197 -424
126 -62 306 -46 401 35 42 36 97 128 109 184 l7 32 -91 0 -91 0 -14 -33 c-15
-38 -66 -84 -102 -93 -41 -10 -119 1 -147 22 -15 10 -39 43 -54 73 -23 46 -27
67 -27 136 0 146 61 225 174 225 65 0 112 -25 145 -77 l20 -32 93 -1 c50 0 92
4 92 8 0 5 -7 29 -16 55 -22 65 -93 140 -162 173 -76 36 -201 43 -284 15z"/>
<path d="M3235 1280 c-94 -30 -161 -96 -186 -182 l-8 -28 91 0 90 0 37 42 c36
40 41 42 102 45 100 6 153 -39 135 -113 -9 -33 -44 -47 -189 -74 -132 -24
-185 -40 -228 -71 -43 -30 -69 -88 -69 -151 1 -138 101 -222 265 -222 93 0
158 24 206 75 l29 31 0 -30 c0 -59 4 -62 99 -62 l86 0 -5 302 c-5 297 -5 304
-28 336 -77 107 -266 153 -427 102z m260 -497 c-7 -41 -50 -92 -92 -109 -69
-29 -164 -11 -188 37 -22 41 -19 65 13 99 23 27 39 33 117 46 49 9 103 21 120
28 l30 13 3 -41 c2 -22 1 -55 -3 -73z"/>
<path d="M4698 1281 c-105 -34 -163 -84 -216 -184 -25 -49 -27 -60 -27 -177 0
-106 4 -133 23 -181 32 -80 90 -142 170 -181 62 -31 73 -33 172 -33 93 0 112
3 161 26 116 54 189 156 210 292 29 184 -55 354 -210 425 -75 35 -200 41 -283
13z m179 -142 c68 -26 114 -101 121 -200 12 -174 -89 -293 -220 -258 -51 13
-82 40 -111 94 -18 33 -22 57 -22 135 0 78 4 102 22 135 48 90 128 125 210 94z"/>
<path d="M5465 1280 c-70 -22 -141 -79 -161 -127 -18 -42 -18 -137 0 -171 35
-66 95 -97 268 -137 140 -32 170 -51 166 -103 -4 -50 -41 -75 -122 -80 -73 -5
-113 11 -148 58 -21 29 -24 30 -111 30 l-89 0 7 -32 c9 -46 53 -107 100 -140
119 -83 362 -74 482 18 74 56 97 186 48 270 -34 57 -97 87 -254 119 -140 28
-171 46 -171 100 0 48 29 68 104 73 72 5 120 -14 138 -53 11 -24 16 -25 99
-25 l87 0 -7 33 c-16 67 -67 123 -146 158 -71 32 -207 36 -290 9z"/>
<path d="M7173 1284 c-23 -9 -62 -33 -87 -55 l-46 -41 0 51 0 51 -90 0 -90 0
0 -375 0 -375 95 0 95 0 0 243 c0 232 1 244 23 282 30 53 77 77 141 72 40 -4
55 -11 77 -35 36 -40 41 -86 37 -350 l-3 -212 98 0 97 0 0 246 c0 234 1 248
22 285 35 63 122 88 188 54 56 -29 60 -49 60 -330 l0 -255 95 0 95 0 0 288 0
288 -25 51 c-77 155 -290 178 -433 48 l-38 -34 -28 36 c-59 73 -182 102 -283
67z"/>
<path d="M6042 1003 c3 -251 5 -293 21 -328 73 -163 293 -204 427 -79 52 49
60 46 60 -22 l0 -34 90 0 90 0 0 375 0 375 -95 0 -95 0 0 -222 c0 -127 -5
-240 -11 -261 -6 -22 -25 -55 -43 -75 -31 -33 -39 -36 -100 -40 -80 -5 -109
10 -137 71 -17 38 -19 68 -19 285 l0 242 -96 0 -95 0 3 -287z"/>
</g>
</svg>
