<svg id="svg" version="1.1" xmlns="http://www.w3.org/2000/svg" xmlns:xlink="http://www.w3.org/1999/xlink" width="400" height="328.8590604026846" viewBox="0, 0, 400,328.8590604026846"><g id="svgg"><path id="path0" d="M179.866 6.215 C 137.992 12.212,109.462 26.047,81.587 53.875 C 58.310 77.112,43.677 104.707,36.486 138.926 C 34.548 148.147,35.630 189.718,38.075 200.000 C 39.392 205.537,40.620 210.973,40.805 212.081 C 40.989 213.188,42.120 216.263,43.318 218.914 C 44.515 221.566,45.678 224.586,45.902 225.626 C 46.126 226.666,46.611 227.819,46.980 228.188 C 47.349 228.557,49.765 233.057,52.349 238.188 C 62.866 259.073,86.248 285.690,103.356 296.251 C 105.940 297.846,109.401 300.412,111.048 301.952 C 112.694 303.493,114.205 304.614,114.403 304.443 C 114.602 304.272,119.899 306.611,126.174 309.641 C 139.977 316.306,142.610 317.269,156.478 320.726 C 166.252 323.162,172.856 324.033,191.946 325.403 C 205.185 326.353,236.038 321.842,246.309 317.455 C 248.523 316.509,251.846 315.302,253.691 314.772 C 276.021 308.367,307.313 284.524,325.672 259.925 C 334.848 247.631,347.055 225.214,349.716 215.772 C 349.872 215.218,350.151 214.463,350.336 214.094 C 350.520 213.725,350.774 212.970,350.900 212.416 C 351.027 211.862,352.310 206.577,353.753 200.671 C 368.959 138.418,334.130 57.945,279.195 28.403 C 272.473 24.788,257.029 16.907,256.376 16.758 C 256.007 16.674,250.570 14.965,244.295 12.960 C 225.148 6.844,196.454 3.840,179.866 6.215 M210.067 36.274 C 225.547 38.438,228.500 39.057,236.913 41.899 C 287.212 58.890,312.515 97.587,278.404 105.353 C 247.476 112.394,214.121 132.458,201.986 151.320 C 199.975 154.446,197.807 156.679,197.167 156.284 C 196.527 155.889,196.341 156.654,196.753 157.984 C 197.299 159.744,196.838 159.549,195.060 157.268 C 176.318 133.219,152.362 115.132,135.106 112.003 C 120.625 109.377,102.920 100.595,100.092 94.635 C 94.953 83.805,102.504 71.800,123.490 57.433 C 135.330 49.328,158.389 38.546,158.389 41.115 C 158.389 41.569,159.144 41.318,160.067 40.559 C 164.887 36.594,194.316 34.071,210.067 36.274 M97.315 128.859 C 100.268 130.285,103.362 131.473,104.189 131.498 C 105.870 131.549,125.123 139.780,126.174 140.898 C 126.544 141.290,128.031 141.818,129.479 142.070 C 137.118 143.404,162.036 159.773,160.416 162.394 C 160.048 162.990,160.624 163.814,161.695 164.225 C 175.865 169.662,187.535 255.793,177.040 277.473 C 162.285 307.952,94.106 264.554,74.303 212.080 C 66.346 190.995,63.177 154.081,68.196 140.940 C 68.900 139.094,69.398 137.180,69.302 136.685 C 69.022 135.243,75.590 128.668,78.523 127.455 C 83.179 125.529,91.747 126.169,97.315 128.859 M314.729 128.086 C 325.328 132.515,330.220 171.604,323.057 194.631 C 321.794 198.691,320.433 203.507,320.032 205.332 C 310.987 246.485,245.434 300.324,221.866 285.954 C 213.010 280.554,211.943 275.919,211.944 242.854 C 211.944 226.647,212.209 212.942,212.534 212.398 C 212.858 211.854,213.514 208.011,213.990 203.858 C 214.467 199.705,215.395 194.570,216.053 192.448 C 225.921 160.610,236.552 151.416,286.375 131.624 C 300.911 125.850,307.429 125.036,314.729 128.086 " stroke="none" fill="#000000" fill-rule="evenodd"></path></g></svg>